<svg width="35" height="35" viewBox="0 0 50 50" fill="none" xmlns="http://www.w3.org/2000/svg">
  <circle cx="25" cy="25" r="25" fill="#2240C4"/>
  <path d="M34.965 22.575C34.604 27.821 29.384 32 23 32C22.535 32 22.069 31.974 21.606 31.928C23.619 33.514 26.545 34.304 29.552 33.895L35 36.618V31.403C36.293 30.16 37 28.612 37 27C37 25.373 36.277 23.822 34.965 22.575Z" fill="white"/>
  <path d="M23 14C17.477 14 13 17.582 13 22C13 23.797 13.75 25.45 15 26.785V32L19.833 29.584C20.829 29.85 21.892 30 23 30C28.523 30 33 26.418 33 22C33 17.582 28.523 14 23 14Z" fill="white"/>
</svg>
