<svg width="50" height="50" viewBox="0 0 50 50" fill="none" xmlns="http://www.w3.org/2000/svg">
<circle cx="25" cy="25" r="25" fill="#2240C4"/>
<g clip-path="url(#clip0_122:112)">
<path d="M34.2 30.6759L28.61 28.2759C28.4265 28.1973 28.2237 28.1754 28.0277 28.213C27.8317 28.2506 27.6514 28.346 27.51 28.4869L25.176 30.7869C23.9572 30.054 22.8247 29.1862 21.8 28.1999C20.815 27.1761 19.947 26.0458 19.212 24.8299L21.512 22.4999C21.6525 22.3582 21.7473 22.1778 21.7844 21.9818C21.8214 21.7857 21.799 21.5831 21.72 21.3999L19.32 15.8099C19.2256 15.5904 19.0557 15.4119 18.8411 15.3068C18.6265 15.2016 18.3813 15.1769 18.15 15.2369L13.75 16.3999C13.53 16.4566 13.3358 16.5865 13.1995 16.7683C13.0632 16.9501 12.9928 17.1728 13 17.3999C13.2801 22.5137 15.4068 27.3519 18.985 31.0159C22.65 34.5955 27.4905 36.722 32.606 36.9999C32.833 37.0072 33.0556 36.9369 33.2374 36.8008C33.4191 36.6647 33.5491 36.4708 33.606 36.2509L34.768 31.8509C34.8297 31.6195 34.8064 31.3736 34.7021 31.158C34.5979 30.9424 34.4197 30.7713 34.2 30.6759Z" fill="white"/>
<path d="M31 23C31 23.2652 31.1054 23.5196 31.2929 23.7071C31.4804 23.8946 31.7348 24 32 24C32.2652 24 32.5196 23.8946 32.7071 23.7071C32.8946 23.5196 33 23.2652 33 23C32.9984 21.4092 32.3658 19.884 31.2409 18.7591C30.116 17.6342 28.5908 17.0016 27 17C26.7348 17 26.4804 17.1054 26.2929 17.2929C26.1054 17.4804 26 17.7348 26 18C26 18.2652 26.1054 18.5196 26.2929 18.7071C26.4804 18.8946 26.7348 19 27 19C28.0609 19 29.0783 19.4214 29.8284 20.1716C30.5786 20.9217 31 21.9391 31 23Z" fill="white"/>
<path d="M27 13C26.7348 13 26.4804 13.1054 26.2929 13.2929C26.1054 13.4804 26 13.7348 26 14C26 14.2652 26.1054 14.5196 26.2929 14.7071C26.4804 14.8946 26.7348 15 27 15C29.121 15.0024 31.1544 15.846 32.6542 17.3458C34.154 18.8456 34.9976 20.879 35 23C35 23.2652 35.1054 23.5196 35.2929 23.7071C35.4804 23.8946 35.7348 24 36 24C36.2652 24 36.5196 23.8946 36.7071 23.7071C36.8946 23.5196 37 23.2652 37 23C36.9971 20.3487 35.9426 17.8069 34.0679 15.9321C32.1931 14.0574 29.6513 13.0029 27 13V13Z" fill="white"/>
</g>
<defs>
<clipPath id="clip0_122:112">
<rect width="24" height="24" fill="white" transform="translate(13 13)"/>
</clipPath>
</defs>
</svg>
