<svg xmlns="http://www.w3.org/2000/svg" width="56" height="56" viewBox="0 0 56 56">
  <defs>
    <linearGradient id="namecheap_avatar-a" x1="13.3%" x2="82.6%" y1="94.9%" y2="1.1%">
      <stop offset="0%" stop-color="#D4202C"/>
      <stop offset="4.2%" stop-color="#D82D2B" stop-opacity=".957"/>
      <stop offset="17.6%" stop-color="#E25226" stop-opacity=".824"/>
      <stop offset="31.7%" stop-color="#EB7123" stop-opacity=".682"/>
      <stop offset="46.3%" stop-color="#F28920" stop-opacity=".537"/>
      <stop offset="61.9%" stop-color="#F69A1E" stop-opacity=".38"/>
      <stop offset="78.9%" stop-color="#F9A41D" stop-opacity=".212"/>
      <stop offset="100%" stop-color="#FAA71D" stop-opacity="0"/>
    </linearGradient>
    <linearGradient id="namecheap_avatar-b" x1="86.6%" x2="17.3%" y1="5%" y2="98.9%">
      <stop offset="0%" stop-color="#D4202C"/>
      <stop offset="4.2%" stop-color="#D82D2B" stop-opacity=".957"/>
      <stop offset="17.6%" stop-color="#E25226" stop-opacity=".824"/>
      <stop offset="31.7%" stop-color="#EB7123" stop-opacity=".682"/>
      <stop offset="46.3%" stop-color="#F28920" stop-opacity=".537"/>
      <stop offset="61.9%" stop-color="#F69A1E" stop-opacity=".38"/>
      <stop offset="78.9%" stop-color="#F9A41D" stop-opacity=".212"/>
      <stop offset="100%" stop-color="#FAA71D" stop-opacity="0"/>
    </linearGradient>
  </defs>
  <g fill="none" fill-rule="evenodd">
    <path fill="#FFF" fill-rule="nonzero" d="M27.5483871,0 C42.7629412,0 55.0967742,12.536027 55.0967742,28 C55.0967742,43.463973 42.7629412,56 27.5483871,56 C12.333833,56 0,43.463973 0,28 C0,12.536027 12.333833,0 27.5483871,0 Z"/>
    <g transform="translate(8 13)">
      <rect width="39.273" height="29.091"/>
      <g fill-rule="nonzero" transform="translate(.182 3.782)">
        <path fill="#FF5000" d="M35.2298182,-4.06139768e-16 C33.9118106,0.00216171443 32.6978893,0.71649483 32.056,1.86763636 L31.9832727,2.01963636 L29.1250909,7.63636364 L25.5112727,14.7636364 L27.88,19.4254545 L28.0167273,19.6836364 C28.3798706,20.328342 28.9305531,20.8473177 29.5956364,21.1716364 C30.2575174,20.8427028 30.806985,20.324872 31.1745455,19.6836364 L31.3112727,19.4254545 L38.4036364,5.45454545 L38.5709091,5.12072727 C39.0633529,3.99174683 38.9545972,2.69074384 38.2815463,1.65919149 C37.6084954,0.627639144 36.4615168,0.00403932166 35.2298182,-4.06139768e-16 Z M13.3476364,6.77236364 L10.9941818,2.12581818 L10.8574545,1.86763636 C10.4941192,1.22282188 9.94317065,0.703834387 9.27781818,0.379636364 C8.61593711,0.708569915 8.06646953,1.22640072 7.69890909,1.86763636 L7.57745455,2.12581818 L0.485818182,16.0967273 L0.318545455,16.4305455 C-0.474914703,18.2122752 0.275400493,20.302859 2.02076601,21.1733985 C3.76613153,22.0439381 5.88749784,21.3856687 6.83345455,19.68 L6.90618182,19.528 L9.76072727,13.9090909 L13.36,6.78690909 L13.3476364,6.77236364 Z"/>
        <path fill="url(#namecheap_avatar-a)" d="M35.2298182,-3.0985945e-06 C33.9107525,-0.00172113903 32.6950087,0.713684481 32.056,1.86763636 L31.9832727,2.01963636 L29.1258182,7.63636364 L25.5112727,14.7636364 L27.88,19.4254545 L28.0167273,19.6836364 C28.3798706,20.328342 28.9305531,20.8473177 29.5956364,21.1716364 C30.2575174,20.8427028 30.806985,20.324872 31.1745455,19.6836364 L31.3112727,19.4254545 L38.4036364,5.45454545 L38.5709091,5.12072727 C39.0633529,3.99174683 38.9545972,2.69074384 38.2815463,1.65919149 C37.6084954,0.627639144 36.4615168,0.00403932166 35.2298182,-3.0985945e-06 Z"/>
        <path fill="url(#namecheap_avatar-b)" d="M3.64436364,21.5483667 C4.96342927,21.5500848 6.17917309,20.8346792 6.81818182,19.6807273 L6.89090909,19.5287273 L9.74545455,13.9098182 L13.3592727,6.78763636 L10.9905455,2.12581818 L10.8538182,1.86763636 C10.4916351,1.22347444 9.94228299,0.704557322 9.27854545,0.379636364 C8.61639569,0.708452591 8.06666319,1.22629453 7.69890909,1.86763636 L7.57745455,2.12581818 L0.485818182,16.0967273 L0.303272727,16.4458182 C-0.188311396,17.5727142 -0.0787005257,18.8714916 0.594794944,19.9000602 C1.26829041,20.9286288 2.41491273,21.5483667 3.64436364,21.5483667 Z"/>
        <path fill="#FF8C44" d="M13.3483636,6.77236364 L10.9941818,2.12581818 L10.8574545,1.86763636 C10.4943112,1.22293075 9.94362876,0.703955004 9.27854545,0.379636364 C9.49738722,0.271321613 9.72637316,0.184842879 9.96218182,0.121454545 C10.259391,0.0428863306 10.5653156,0.00208009404 10.8727273,0 L15.8538182,0 C17.1700246,0.00872084974 18.3808877,0.721254448 19.0276364,1.86763636 L19.1338182,2.12581818 L25.5265455,14.7752727 L27.88,19.4218182 L28.0167273,19.68 C28.3792945,20.3243793 28.9291787,20.8433198 29.5934545,21.168 C29.093513,21.4172126 28.5426128,21.5471583 27.984,21.5476364 L23.0363636,21.5476364 C21.7201573,21.5389155 20.5092941,20.8263819 19.8625455,19.68 L19.7258182,19.4218182 L13.3483636,6.77236364 Z"/>
      </g>
    </g>
  </g>
</svg>
